<svg xmlns="http://www.w3.org/2000/svg" viewBox="0 0 1107.04 1107.04"><defs><style>.cls-1,.cls-2{fill-rule:evenodd;}.cls-2{fill:#fff;}</style></defs><g id="Layer_2" data-name="Layer 2"><g id="Layer_1-2" data-name="Layer 1"><path class="cls-1" d="M553.52,1107C858.39,1107,1107,858.39,1107,553.52S858.39,0,553.52,0,0,248.66,0,553.52,248.65,1107,553.52,1107Z"/><path class="cls-2" d="M700.93,625.06c-8-4.41-47.62-25.76-55-28.78s-12.84-4.57-18.61,3.43-22.2,25.87-27.17,31.16c-9.45,10-27.83-3.16-38.13-8.9a211.83,211.83,0,0,1-44.16-32.88c-23.56-22.66-39-50.12-43.49-58.51-6.85-12.81,17.13-27.77,24.49-41.47.4-.76.83-1.56,1.3-2.4,2.93-5.37,1.75-10.22-.15-14.39s-16.8-45.15-23-61.82c-7.9-21.17-42.8-19.47-55.89-6.21-7.82,7.92-29.75,27-31.25,67.33s26.4,80.44,30.29,86,53.32,93.11,135.46,129.08c48.59,21.27,87.33,41,134.15,9.17C699,689.65,706.86,682,710.05,674c7.55-18.89,8.16-35.31,6.24-38.8S709,629.46,700.93,625.06Z"/><path class="cls-2" d="M778.72,327a314.53,314.53,0,0,0-223.91-92.8c-174.46,0-316.45,141.94-316.52,316.41a315.68,315.68,0,0,0,42.25,158.19l-44.91,164,167.8-44a316.43,316.43,0,0,0,151.26,38.51h.13c174.45,0,316.45-142,316.53-316.42A314.45,314.45,0,0,0,778.72,327ZM554.82,813.88h-.11a262.7,262.7,0,0,1-133.9-36.67l-9.61-5.7-99.57,26.12,26.57-97.06L332,690.63a262.41,262.41,0,0,1-40.22-140c0-145,118.07-263,263.19-263a263.1,263.1,0,0,1,263,263.2C817.84,695.89,699.82,813.88,554.82,813.88Z"/></g></g></svg>