<svg version="1.0" preserveAspectRatio="xMidYMid meet" height="80" viewBox="0 0 300 60" zoomAndPan="magnify" width="400" xmlns:xlink="http://www.w3.org/1999/xlink" xmlns="http://www.w3.org/2000/svg"><rect fill-opacity="1" height="72" y="-6" fill="#ffffff" width="360" x="-30"></rect><path fill-rule="nonzero" fill-opacity="1" d="M 41.066406 13.386719 L 45.902344 13.386719 L 45.902344 46.929688 L 41.066406 46.929688 L 41.066406 48.242188 L 55.980469 48.242188 L 55.980469 46.929688 L 51.140625 46.929688 L 51.140625 29.929688 L 65.652344 29.929688 L 65.652344 46.929688 L 60.816406 46.929688 L 60.816406 48.242188 L 75.726562 48.242188 L 75.726562 46.929688 L 70.890625 46.929688 L 70.890625 13.386719 L 75.726562 13.386719 L 75.726562 12.074219 L 60.816406 12.074219 L 60.816406 13.386719 L 65.652344 13.386719 L 65.652344 28.621094 L 51.140625 28.621094 L 51.140625 13.386719 L 55.980469 13.386719 L 55.980469 12.074219 L 41.066406 12.074219 L 41.066406 13.386719" fill="#211d1d"></path><path fill-rule="nonzero" fill-opacity="1" d="M 80.234375 48.242188 L 92.710938 48.242188 L 92.710938 46.929688 L 87.425781 46.929688 L 91.226562 35.328125 L 101.734375 35.328125 L 106.03125 46.929688 L 99.730469 46.929688 L 99.730469 48.242188 L 116.632812 48.242188 L 116.632812 46.929688 L 112.050781 46.929688 L 98.875 11.367188 L 97.375 11.367188 L 85.726562 46.929688 L 80.234375 46.929688 Z M 91.601562 34.019531 L 96.15625 20.269531 L 101.222656 34.019531 Z M 91.601562 34.019531" fill="#211d1d"></path><path fill-rule="nonzero" fill-opacity="1" d="M 120.539062 48.242188 L 120.539062 46.929688 L 125.378906 46.929688 L 125.378906 13.386719 L 120.539062 13.386719 L 120.539062 12.074219 L 135.753906 12.074219 C 137.671875 12.074219 139.363281 12.328125 140.84375 12.832031 C 142.320312 13.335938 143.480469 14.023438 144.320312 14.886719 C 145.15625 15.753906 145.789062 16.695312 146.207031 17.710938 C 146.628906 18.730469 146.839844 19.800781 146.839844 20.929688 C 146.839844 23.113281 146.199219 24.867188 144.921875 26.1875 C 143.648438 27.507812 141.902344 28.417969 139.6875 28.921875 L 139.6875 29.226562 C 142.253906 29.628906 144.214844 30.53125 145.566406 31.925781 C 146.917969 33.320312 147.59375 34.941406 147.59375 36.792969 L 147.59375 42.289062 C 147.59375 44.019531 147.882812 45.242188 148.464844 45.957031 C 149.042969 46.675781 150.019531 47.03125 151.398438 47.03125 C 152.355469 47.03125 153.355469 46.871094 154.398438 46.554688 L 154.695312 47.773438 C 153.019531 48.355469 151.261719 48.644531 149.433594 48.644531 C 148.609375 48.644531 147.820312 48.546875 147.066406 48.355469 C 146.308594 48.164062 145.558594 47.847656 144.808594 47.410156 C 144.0625 46.972656 143.46875 46.316406 143.023438 45.445312 C 142.578125 44.570312 142.355469 43.527344 142.355469 42.316406 L 142.355469 36.414062 C 142.355469 34.511719 141.84375 32.917969 140.832031 31.621094 C 139.816406 30.324219 138.289062 29.679688 136.257812 29.679688 L 130.617188 29.679688 L 130.617188 46.929688 L 135.453125 46.929688 L 135.453125 48.242188 Z M 130.617188 28.367188 L 137.066406 28.367188 C 137.96875 28.367188 138.730469 28.191406 139.34375 27.835938 C 139.957031 27.484375 140.421875 26.976562 140.742188 26.3125 C 141.0625 25.648438 141.285156 24.925781 141.410156 24.144531 C 141.535156 23.359375 141.597656 22.4375 141.597656 21.378906 C 141.597656 20.386719 141.488281 19.441406 141.257812 18.53125 C 141.03125 17.625 140.6875 16.773438 140.226562 15.984375 C 139.765625 15.195312 139.113281 14.5625 138.273438 14.09375 C 137.433594 13.621094 136.460938 13.386719 135.351562 13.386719 L 130.617188 13.386719 L 130.617188 28.367188" fill="#211d1d"></path><path fill-rule="nonzero" fill-opacity="1" d="M 3.207031 30.285156 C 3.207031 27.996094 3.523438 25.839844 4.164062 23.816406 C 4.800781 21.789062 5.675781 20.027344 6.78125 18.53125 C 7.890625 17.035156 9.175781 15.742188 10.636719 14.648438 C 12.097656 13.550781 13.675781 12.734375 15.375 12.1875 C 17.070312 11.640625 18.789062 11.367188 20.539062 11.367188 C 23.074219 11.367188 25.421875 11.765625 27.589844 12.554688 C 28.582031 12.925781 29.371094 13.109375 29.957031 13.109375 C 30.460938 13.109375 30.855469 12.96875 31.140625 12.695312 C 31.429688 12.414062 31.722656 11.972656 32.023438 11.367188 L 33.132812 11.367188 L 33.132812 23.25 L 32.023438 23.25 C 31.417969 20.757812 30.46875 18.621094 29.179688 16.839844 C 28.792969 16.304688 28.386719 15.824219 27.96875 15.402344 C 27.546875 14.984375 26.996094 14.550781 26.316406 14.105469 C 25.636719 13.660156 24.804688 13.3125 23.824219 13.058594 C 22.84375 12.804688 21.746094 12.679688 20.539062 12.679688 C 16.894531 12.679688 14.078125 14.179688 12.085938 17.179688 C 10.09375 20.183594 9.101562 24.550781 9.101562 30.285156 C 9.101562 36 10.089844 40.320312 12.070312 43.25 C 14.054688 46.175781 16.875 47.636719 20.539062 47.636719 C 21.746094 47.636719 22.84375 47.511719 23.824219 47.261719 C 24.804688 47.007812 25.636719 46.660156 26.316406 46.214844 C 26.996094 45.765625 27.546875 45.335938 27.96875 44.914062 C 28.386719 44.492188 28.792969 44.015625 29.179688 43.476562 C 30.46875 41.691406 31.417969 39.558594 32.023438 37.070312 L 33.132812 37.070312 L 33.132812 48.949219 L 32.023438 48.949219 C 31.820312 48.546875 31.648438 48.242188 31.507812 48.039062 C 31.363281 47.839844 31.160156 47.648438 30.890625 47.472656 C 30.621094 47.296875 30.308594 47.207031 29.957031 47.207031 C 29.371094 47.207031 28.582031 47.394531 27.589844 47.765625 C 25.421875 48.554688 23.074219 48.949219 20.539062 48.949219 C 18.320312 48.949219 16.183594 48.519531 14.125 47.664062 C 12.070312 46.804688 10.226562 45.601562 8.597656 44.042969 C 6.96875 42.488281 5.664062 40.515625 4.679688 38.128906 C 3.695312 35.742188 3.207031 33.125 3.207031 30.285156" fill="#211d1d"></path><path fill-rule="nonzero" fill-opacity="1" d="M 159.105469 13.386719 L 163.941406 13.386719 L 163.941406 46.929688 L 159.105469 46.929688 L 159.105469 48.242188 L 174.019531 48.242188 L 174.019531 46.929688 L 169.183594 46.929688 L 169.183594 13.386719 L 174.019531 13.386719 L 174.019531 12.074219 L 159.105469 12.074219 L 159.105469 13.386719" fill="#211d1d"></path><path fill-rule="nonzero" fill-opacity="1" d="M 179.863281 25.011719 L 180.917969 12.074219 L 206.664062 12.074219 L 206.710938 13.210938 L 186.75 46.933594 L 196.570312 46.933594 C 198.109375 46.933594 199.582031 46.570312 200.988281 45.84375 C 202.398438 45.125 203.488281 44.171875 204.257812 42.996094 C 205.175781 41.617188 205.816406 40.457031 206.175781 39.515625 C 206.535156 38.574219 206.917969 37.171875 207.320312 35.304688 L 208.628906 35.304688 L 208.074219 48.242188 L 180.214844 48.242188 L 180.214844 47.03125 L 200.191406 13.382812 L 191.300781 13.382812 C 189.734375 13.382812 188.386719 13.664062 187.242188 14.21875 C 186.101562 14.773438 185.109375 15.671875 184.269531 16.914062 C 183.496094 18.058594 182.886719 19.222656 182.445312 20.398438 C 182 21.574219 181.574219 23.113281 181.171875 25.011719 L 179.863281 25.011719" fill="#211d1d"></path><path fill-rule="nonzero" fill-opacity="1" d="M 214.699219 48.242188 L 214.699219 46.929688 L 219.835938 46.929688 L 219.835938 13.386719 L 214.699219 13.386719 L 214.699219 12.074219 L 226.84375 12.074219 L 235.613281 39.824219 L 244.824219 12.074219 L 255.757812 12.074219 L 255.757812 13.386719 L 250.921875 13.386719 L 250.921875 46.929688 L 255.757812 46.929688 L 255.757812 48.242188 L 240.847656 48.242188 L 240.847656 46.929688 L 245.683594 46.929688 L 245.683594 14.644531 L 245.542969 14.636719 L 234.097656 48.949219 L 232.660156 48.949219 L 221.953125 15.074219 C 221.753906 14.46875 221.652344 13.90625 221.652344 13.386719 L 221.449219 13.386719 L 221.449219 46.929688 L 226.585938 46.929688 L 226.585938 48.242188 L 214.699219 48.242188" fill="#211d1d"></path><path fill-rule="nonzero" fill-opacity="1" d="M 260.265625 48.242188 L 272.746094 48.242188 L 272.746094 46.929688 L 267.453125 46.929688 L 271.253906 35.328125 L 281.765625 35.328125 L 286.0625 46.929688 L 279.765625 46.929688 L 279.765625 48.242188 L 296.664062 48.242188 L 296.664062 46.929688 L 292.078125 46.929688 L 278.910156 11.367188 L 277.40625 11.367188 L 265.757812 46.929688 L 260.265625 46.929688 Z M 271.628906 34.019531 L 276.1875 20.269531 L 281.25 34.019531 Z M 271.628906 34.019531" fill="#211d1d"></path></svg>